# xmcd
#
# Track frame offsets: 
#        150
#        17171
#        34035
#        51202
#        70236
#        84892
#        103703
#        122253
#        135909
#        152066
#        171497
#        188424
#
# Disc length: 2703 seconds
#
# Revision: 0
# Processed by: cddbd v1.5.1PL2 Copyright (c) Steve Scherf et al.
# Submitted via: ExactAudioCopy v0.95a5
#
DISCID=8d0a8d0c
DTITLE=Bjørn Berge - We're Gonna Groove
DYEAR=2006
DGENRE=Blues
TTITLE0=Had A Suspicion
TTITLE1=Mable Blues
TTITLE2=Accused (Of Counting On You)
TTITLE3=A Little Follow Through
TTITLE4=The Darker Side Of Me
TTITLE5=Walk Away
TTITLE6=Knock You Down
TTITLE7=We're Gonna Groove
TTITLE8=Here Comes The Devil
TTITLE9=Out Of Time
TTITLE10=You've Been Had
TTITLE11=Have A Cigarette And A Smile
EXTD=
EXTT0=
EXTT1=
EXTT2=
EXTT3=
EXTT4=
EXTT5=
EXTT6=
EXTT7=
EXTT8=
EXTT9=
EXTT10=
EXTT11=
PLAYORDER=
